<mxfile host="app.diagrams.net" modified="2023-01-24T12:30:18.689Z" agent="5.0 (Windows NT 10.0; Win64; x64) AppleWebKit/537.36 (KHTML, like Gecko) Chrome/109.0.0.0 Safari/537.36" etag="Vba_k3WNEQhK4k1nZ9_N" version="20.8.10" type="github">
  <diagram id="C5RBs43oDa-KdzZeNtuy" name="Page-1">
    <mxGraphModel dx="880" dy="484" grid="1" gridSize="10" guides="1" tooltips="1" connect="1" arrows="1" fold="1" page="1" pageScale="1" pageWidth="827" pageHeight="1169" math="0" shadow="0">
      <root>
        <mxCell id="WIyWlLk6GJQsqaUBKTNV-0" />
        <mxCell id="WIyWlLk6GJQsqaUBKTNV-1" parent="WIyWlLk6GJQsqaUBKTNV-0" />
        <mxCell id="oIN4wXyYbZ_81NkCZPgc-1" style="edgeStyle=orthogonalEdgeStyle;rounded=0;orthogonalLoop=1;jettySize=auto;html=1;" edge="1" parent="WIyWlLk6GJQsqaUBKTNV-1" source="oIN4wXyYbZ_81NkCZPgc-0" target="oIN4wXyYbZ_81NkCZPgc-2">
          <mxGeometry relative="1" as="geometry">
            <mxPoint x="190" y="160" as="targetPoint" />
          </mxGeometry>
        </mxCell>
        <mxCell id="oIN4wXyYbZ_81NkCZPgc-0" value="start" style="ellipse;whiteSpace=wrap;html=1;" vertex="1" parent="WIyWlLk6GJQsqaUBKTNV-1">
          <mxGeometry x="130" y="40" width="120" height="80" as="geometry" />
        </mxCell>
        <mxCell id="oIN4wXyYbZ_81NkCZPgc-3" style="edgeStyle=orthogonalEdgeStyle;rounded=0;orthogonalLoop=1;jettySize=auto;html=1;" edge="1" parent="WIyWlLk6GJQsqaUBKTNV-1" source="oIN4wXyYbZ_81NkCZPgc-2" target="oIN4wXyYbZ_81NkCZPgc-4">
          <mxGeometry relative="1" as="geometry">
            <mxPoint x="190" y="260" as="targetPoint" />
          </mxGeometry>
        </mxCell>
        <mxCell id="oIN4wXyYbZ_81NkCZPgc-2" value="process" style="rounded=0;whiteSpace=wrap;html=1;" vertex="1" parent="WIyWlLk6GJQsqaUBKTNV-1">
          <mxGeometry x="130" y="160" width="120" height="60" as="geometry" />
        </mxCell>
        <mxCell id="oIN4wXyYbZ_81NkCZPgc-4" value="end" style="ellipse;whiteSpace=wrap;html=1;" vertex="1" parent="WIyWlLk6GJQsqaUBKTNV-1">
          <mxGeometry x="130" y="260" width="120" height="80" as="geometry" />
        </mxCell>
      </root>
    </mxGraphModel>
  </diagram>
</mxfile>
